<svg width="34" height="34" viewBox="0 0 34 34" fill="none" xmlns="http://www.w3.org/2000/svg">
<path d="M17 3.3999C11.3667 3.3999 6.80002 7.9666 6.80002 13.5999V19.6957L5.59794 20.8978C5.11175 21.384 4.9663 22.1152 5.22943 22.7505C5.49256 23.3857 6.11244 23.7999 6.80002 23.7999H27.2C27.8876 23.7999 28.5075 23.3857 28.7706 22.7505C29.0337 22.1152 28.8883 21.384 28.4021 20.8978L27.2 19.6957V13.5999C27.2 7.9666 22.6333 3.3999 17 3.3999Z" fill="white"/>
<path d="M17 30.5999C14.1833 30.5999 11.9 28.3166 11.9 25.4999H22.1C22.1 28.3166 19.8166 30.5999 17 30.5999Z" fill="white"/>
</svg>
